<?xml version="1.0" standalone="no"?>
<!DOCTYPE svg PUBLIC "-//W3C//DTD SVG 20010904//EN"
 "http://www.w3.org/TR/2001/REC-SVG-20010904/DTD/svg10.dtd">
<svg version="1.0" xmlns="http://www.w3.org/2000/svg"
 width="645.000000pt" height="387.000000pt" viewBox="0 0 645.000000 387.000000"
 preserveAspectRatio="xMidYMid meet">

<g transform="translate(0.000000,387.000000) scale(0.100000,-0.100000)"
fill="#000000" stroke="none">
<path d="M1986 3362 c-11 -18 -2 -2455 9 -2459 6 -2 73 60 150 138 434 438
1022 1023 1042 1036 53 35 52 42 47 -586 -3 -453 -1 -581 8 -594 12 -16 61
-17 613 -19 510 -1 600 1 597 13 -2 8 -269 277 -593 599 -588 584 -618 617
-573 634 9 3 156 6 327 6 345 0 407 7 512 59 137 68 265 209 313 345 22 62 26
88 26 206 1 87 -4 153 -13 185 -43 155 -169 308 -304 370 -160 74 -83 69
-1174 73 -581 2 -984 -1 -987 -6z m1246 -49 c8 -35 -2 -1177 -10 -1185 -5 -5
-271 -8 -593 -8 -486 0 -586 3 -598 14 -17 18 11 48 594 634 236 238 432 437
433 442 7 20 134 120 151 120 10 0 21 -8 23 -17z"/>
</g>
</svg>
